<?xml version="1.0" encoding="UTF-8" standalone="no"?>
<!-- Created with Inkscape (http://www.inkscape.org/) -->

<svg
   xmlns:dc="http://purl.org/dc/elements/1.1/"
   xmlns:cc="http://creativecommons.org/ns#"
   xmlns:rdf="http://www.w3.org/1999/02/22-rdf-syntax-ns#"
   xmlns:svg="http://www.w3.org/2000/svg"
   xmlns="http://www.w3.org/2000/svg"
   xmlns:xlink="http://www.w3.org/1999/xlink"
   xmlns:sodipodi="http://sodipodi.sourceforge.net/DTD/sodipodi-0.dtd"
   xmlns:inkscape="http://www.inkscape.org/namespaces/inkscape"
   width="168.57143"
   height="168.57143"
   id="svg2"
   version="1.1"
   inkscape:version="0.47 r22583"
   sodipodi:docname="jloader.svg">
  <defs
     id="defs4">
    <linearGradient
       id="linearGradient2919">
      <stop
         style="stop-color:#ff00dc;stop-opacity:1;"
         offset="0"
         id="stop2921" />
      <stop
         style="stop-color:#520544;stop-opacity:1;"
         offset="1"
         id="stop2923" />
    </linearGradient>
    <inkscape:perspective
       sodipodi:type="inkscape:persp3d"
       inkscape:vp_x="0 : 526.18109 : 1"
       inkscape:vp_y="0 : 1000 : 0"
       inkscape:vp_z="744.09448 : 526.18109 : 1"
       inkscape:persp3d-origin="372.04724 : 350.78739 : 1"
       id="perspective10" />
    <inkscape:perspective
       id="perspective2834"
       inkscape:persp3d-origin="0.5 : 0.33333333 : 1"
       inkscape:vp_z="1 : 0.5 : 1"
       inkscape:vp_y="0 : 1000 : 0"
       inkscape:vp_x="0 : 0.5 : 1"
       sodipodi:type="inkscape:persp3d" />
    <inkscape:perspective
       id="perspective2834-7"
       inkscape:persp3d-origin="0.5 : 0.33333333 : 1"
       inkscape:vp_z="1 : 0.5 : 1"
       inkscape:vp_y="0 : 1000 : 0"
       inkscape:vp_x="0 : 0.5 : 1"
       sodipodi:type="inkscape:persp3d" />
    <inkscape:perspective
       id="perspective2834-5"
       inkscape:persp3d-origin="0.5 : 0.33333333 : 1"
       inkscape:vp_z="1 : 0.5 : 1"
       inkscape:vp_y="0 : 1000 : 0"
       inkscape:vp_x="0 : 0.5 : 1"
       sodipodi:type="inkscape:persp3d" />
    <inkscape:perspective
       id="perspective2878"
       inkscape:persp3d-origin="0.5 : 0.33333333 : 1"
       inkscape:vp_z="1 : 0.5 : 1"
       inkscape:vp_y="0 : 1000 : 0"
       inkscape:vp_x="0 : 0.5 : 1"
       sodipodi:type="inkscape:persp3d" />
    <inkscape:perspective
       id="perspective2878-0"
       inkscape:persp3d-origin="0.5 : 0.33333333 : 1"
       inkscape:vp_z="1 : 0.5 : 1"
       inkscape:vp_y="0 : 1000 : 0"
       inkscape:vp_x="0 : 0.5 : 1"
       sodipodi:type="inkscape:persp3d" />
    <inkscape:perspective
       id="perspective2878-8"
       inkscape:persp3d-origin="0.5 : 0.33333333 : 1"
       inkscape:vp_z="1 : 0.5 : 1"
       inkscape:vp_y="0 : 1000 : 0"
       inkscape:vp_x="0 : 0.5 : 1"
       sodipodi:type="inkscape:persp3d" />
    <inkscape:perspective
       id="perspective2878-88"
       inkscape:persp3d-origin="0.5 : 0.33333333 : 1"
       inkscape:vp_z="1 : 0.5 : 1"
       inkscape:vp_y="0 : 1000 : 0"
       inkscape:vp_x="0 : 0.5 : 1"
       sodipodi:type="inkscape:persp3d" />
    <linearGradient
       inkscape:collect="always"
       xlink:href="#linearGradient2919"
       id="linearGradient2925"
       x1="156.42857"
       y1="369.50504"
       x2="360.71429"
       y2="579.50507"
       gradientUnits="userSpaceOnUse" />
  </defs>
  <sodipodi:namedview
     id="base"
     pagecolor="#ffffff"
     bordercolor="#666666"
     borderopacity="1.0"
     inkscape:pageopacity="0.0"
     inkscape:pageshadow="2"
     inkscape:zoom="0.7"
     inkscape:cx="263.35436"
     inkscape:cy="-62.19696"
     inkscape:document-units="px"
     inkscape:current-layer="layer1"
     showgrid="false"
     inkscape:window-width="1919"
     inkscape:window-height="1050"
     inkscape:window-x="1"
     inkscape:window-y="0"
     inkscape:window-maximized="1" />
  <metadata
     id="metadata7">
    <rdf:RDF>
      <cc:Work
         rdf:about="">
        <dc:format>image/svg+xml</dc:format>
        <dc:type
           rdf:resource="http://purl.org/dc/dcmitype/StillImage" />
        <dc:title />
      </cc:Work>
    </rdf:RDF>
  </metadata>
  <g
     inkscape:label="Layer 1"
     inkscape:groupmode="layer"
     id="layer1"
     transform="translate(-168.57143,-380.93362)">
    <rect
       style="fill:url(#linearGradient2925);fill-opacity:1;stroke:none"
       id="rect2816"
       width="168.57143"
       height="168.57143"
       x="168.57143"
       y="380.93362"
       ry="14.142136" />
    <path
       sodipodi:type="arc"
       style="fill:#666666;fill-opacity:1;stroke:none"
       id="path2824"
       sodipodi:cx="474.28571"
       sodipodi:cy="515.2193"
       sodipodi:rx="12.142858"
       sodipodi:ry="12.142858"
       d="m 486.42856,515.2193 c 0,6.70631 -5.43654,12.14286 -12.14285,12.14286 -6.70632,0 -12.14286,-5.43655 -12.14286,-12.14286 0,-6.70632 5.43654,-12.14286 12.14286,-12.14286 6.70631,0 12.14285,5.43654 12.14285,12.14286 z"
       transform="translate(-178.57143,-94.285712)" />
    <path
       transform="translate(-222.14285,-109.99998)"
       sodipodi:type="arc"
       style="fill:#ffffff;fill-opacity:1;stroke:none"
       id="path2824-4"
       sodipodi:cx="474.28571"
       sodipodi:cy="515.2193"
       sodipodi:rx="12.142858"
       sodipodi:ry="12.142858"
       d="m 486.42856,515.2193 c 0,6.70631 -5.43654,12.14286 -12.14285,12.14286 -6.70632,0 -12.14286,-5.43655 -12.14286,-12.14286 0,-6.70632 5.43654,-12.14286 12.14286,-12.14286 6.70631,0 12.14285,5.43654 12.14285,12.14286 z" />
    <path
       transform="translate(-265.71428,-94.285691)"
       sodipodi:type="arc"
       style="fill:#f2f2f2;fill-opacity:1;stroke:none"
       id="path2824-6"
       sodipodi:cx="474.28571"
       sodipodi:cy="515.2193"
       sodipodi:rx="12.142858"
       sodipodi:ry="12.142858"
       d="m 486.42856,515.2193 c 0,6.70631 -5.43654,12.14286 -12.14285,12.14286 -6.70632,0 -12.14286,-5.43655 -12.14286,-12.14286 0,-6.70632 5.43654,-12.14286 12.14286,-12.14286 6.70631,0 12.14285,5.43654 12.14285,12.14286 z" />
    <path
       transform="translate(-176.42856,-5.7142606)"
       sodipodi:type="arc"
       style="fill:#999999;fill-opacity:1;stroke:none"
       id="path2824-69"
       sodipodi:cx="474.28571"
       sodipodi:cy="515.2193"
       sodipodi:rx="12.142858"
       sodipodi:ry="12.142858"
       d="m 486.42856,515.2193 c 0,6.70631 -5.43654,12.14286 -12.14285,12.14286 -6.70632,0 -12.14286,-5.43655 -12.14286,-12.14286 0,-6.70632 5.43654,-12.14286 12.14286,-12.14286 6.70631,0 12.14285,5.43654 12.14285,12.14286 z" />
    <path
       transform="translate(-161.42856,-44.999974)"
       sodipodi:type="arc"
       style="fill:#808080;fill-opacity:1;stroke:none"
       id="path2824-69-3"
       sodipodi:cx="474.28571"
       sodipodi:cy="515.2193"
       sodipodi:rx="12.142858"
       sodipodi:ry="12.142858"
       d="m 486.42856,515.2193 c 0,6.70631 -5.43654,12.14286 -12.14285,12.14286 -6.70632,0 -12.14286,-5.43655 -12.14286,-12.14286 0,-6.70632 5.43654,-12.14286 12.14286,-12.14286 6.70631,0 12.14285,5.43654 12.14285,12.14286 z" />
    <path
       transform="translate(-223.57142,12.857169)"
       sodipodi:type="arc"
       style="fill:#b3b3b3;fill-opacity:1;stroke:none"
       id="path2824-69-7"
       sodipodi:cx="474.28571"
       sodipodi:cy="515.2193"
       sodipodi:rx="12.142858"
       sodipodi:ry="12.142858"
       d="m 486.42856,515.2193 c 0,6.70631 -5.43654,12.14286 -12.14285,12.14286 -6.70632,0 -12.14286,-5.43655 -12.14286,-12.14286 0,-6.70632 5.43654,-12.14286 12.14286,-12.14286 6.70631,0 12.14285,5.43654 12.14285,12.14286 z" />
    <path
       transform="translate(-265.71428,-5.7142605)"
       sodipodi:type="arc"
       style="fill:#cccccc;fill-opacity:1;stroke:none"
       id="path2824-69-6"
       sodipodi:cx="474.28571"
       sodipodi:cy="515.2193"
       sodipodi:rx="12.142858"
       sodipodi:ry="12.142858"
       d="m 486.42856,515.2193 c 0,6.70631 -5.43654,12.14286 -12.14285,12.14286 -6.70632,0 -12.14286,-5.43655 -12.14286,-12.14286 0,-6.70632 5.43654,-12.14286 12.14286,-12.14286 6.70631,0 12.14285,5.43654 12.14285,12.14286 z" />
    <path
       transform="translate(-284.99999,-49.285688)"
       sodipodi:type="arc"
       style="fill:#e6e6e6;fill-opacity:1;stroke:none"
       id="path2824-69-4"
       sodipodi:cx="474.28571"
       sodipodi:cy="515.2193"
       sodipodi:rx="12.142858"
       sodipodi:ry="12.142858"
       d="m 486.42856,515.2193 c 0,6.70631 -5.43654,12.14286 -12.14285,12.14286 -6.70632,0 -12.14286,-5.43655 -12.14286,-12.14286 0,-6.70632 5.43654,-12.14286 12.14286,-12.14286 6.70631,0 12.14285,5.43654 12.14285,12.14286 z" />
    <text
       xml:space="preserve"
       style="font-size:56px;font-style:normal;font-variant:normal;font-weight:normal;font-stretch:normal;fill:#000000;fill-opacity:1;stroke:none;font-family:Purisa;-inkscape-font-specification:Purisa"
       x="208.57143"
       y="482.36218"
       id="text2927"><tspan
         sodipodi:role="line"
         id="tspan2929"
         x="208.57143"
         y="482.36218">h5p</tspan></text>
  </g>
</svg>
